# xmcd CD database file
#
# Track frame offsets:
#	183
#	11358
#	24633
#	38133
#	51708
#	71358
#	91158
#	101995
#	124383
#	138308
#	152583
#	163983
#	173283
#	185283
#	197620
#	210933
#	222483
#	231333
#
# Disc length: 3380 seconds
#
# Revision: 0
# Processed by: cddbd v1.5PL3 Copyright (c) Steve Scherf et al.
# Submitted via: CDex 1.51
#
DISCID=f80d3212
DTITLE=The Rob Hoeke Rhythm&Blues Group  - Celsius 232,8 and Boogie and Soul
DYEAR=1988
DGENRE=Blues
TTITLE0=Swanee river boogie
TTITLE1=Blues for a kid
TTITLE2=P.Kick Boogie
TTITLE3=What is soul
TTITLE4=Ode to Lucky Luck
TTITLE5=Down here
TTITLE6=Deep in the heart of Texas
TTITLE7=Down South
TTITLE8=Lying in the Grass
TTITLE9=Purple potatoes
TTITLE10=Yellow Stones
TTITLE11=Six o'clock blues
TTITLE12=The rain still falling from above
TTITLE13=Don't feel ashamed
TTITLE14=How high we used to go
TTITLE15=Out of town
TTITLE16=Fahrenheit 451
TTITLE17=Just make me a pallet
EXTD=YEAR: 1988
EXTT0=
EXTT1=
EXTT2=
EXTT3=
EXTT4=
EXTT5=
EXTT6=
EXTT7=
EXTT8=
EXTT9=
EXTT10=
EXTT11=
EXTT12=
EXTT13=
EXTT14=
EXTT15=
EXTT16=
EXTT17=
PLAYORDER=
